<svg viewBox="0 0 600 200" xmlns="http://www.w3.org/2000/svg">
  <defs>
    <!-- YELLOW TRIANGLE -->
    <linearGradient id="elPlannedGrad" x1="0" y1="0" x2="0" y2="1">
      <stop offset="0%" stop-color="#FDE68A"/>
      <stop offset="100%" stop-color="#FACC15"/>
    </linearGradient>
  </defs>

  <!-- CENTER -->
  <g transform="translate(300,100) scale(0.32) translate(-256,-256)">

    <!-- TRIANGLE -->
    <path d="M507.494,426.066L282.864,53.536c-5.677-9.415-15.87-15.172-26.865-15.172
             c-10.994,0-21.188,5.756-26.865,15.172L4.506,426.066
             c-5.842,9.689-6.015,21.774-0.451,31.625
             c5.564,9.852,16.001,15.944,27.315,15.944h449.259
             c11.314,0,21.751-6.093,27.315-15.944
             C513.509,447.839,513.336,435.755,507.494,426.066z"
          fill="url(#elPlannedGrad)"/>

    <!-- LIGHTNING (NOW WHITE) -->
    <path d="M311.149,290.496c2.056-2.81,2.357-6.537,0.781-9.642
             c-1.576-3.105-4.763-5.061-8.244-5.061h-36.06
             l14.619-71.475c0.544-2.655-0.837-5.331-3.315-6.427
             c-2.478-1.097-5.387-0.319-6.986,1.868l-70.319,96.148
             c-2.056,2.81-2.357,6.537-0.781,9.642
             c1.576,3.105,4.763,5.061,8.244,5.061h36.06
             l-14.619,71.475c-0.544,2.655,0.837,5.331,3.315,6.428
             c2.478,1.097,5.387,0.319,6.986-1.868L311.149,290.496z"
          fill="white"/>

    <!-- CLOCK -->
    <g transform="translate(350,360)">
      <circle r="28" fill="white"/>
      <line x1="0" y1="0" x2="0" y2="-16"
            stroke="#FACC15" stroke-width="5" stroke-linecap="round"/>
      <line x1="0" y1="0" x2="12" y2="10"
            stroke="#FACC15" stroke-width="5" stroke-linecap="round"/>
    </g>

  </g>
</svg>