<svg viewBox="0 0 600 200" xmlns="http://www.w3.org/2000/svg">

  <!-- PERFECT CENTER FOR 1024 ICON -->
  <g transform="translate(300,100) scale(0.16) translate(-512,-512)">

    <!-- body -->
    <path d="M691.776 917.824c0 8.704-7.04 15.744-15.68 15.744H357.504a15.68 15.68 0 0 1-15.808-15.744V119.424c0-8.64 6.976-15.68 15.808-15.68h318.528c8.64 0 15.68 7.04 15.68 15.68v798.4z"
          fill="#334155"/>

    <!-- red -->
    <circle cx="512" cy="270" r="95" fill="#EF4444"/>

    <!-- yellow -->
    <circle cx="512" cy="520" r="95" fill="#FACC15"/>

    <!-- green -->
    <circle cx="512" cy="770" r="95" fill="#22C55E"/>

    <!-- side wings (details) -->
    <path d="M868.928 146.176h-177.152v200.512h5.696l171.456-134.784z
             M868.928 409.6h-177.152v200.512h5.696l171.456-134.72z
             M868.928 676.992h-177.152v200.576h5.696l171.456-134.72z
             M164.48 146.176h177.216v200.512H336L164.48 211.904z
             M164.48 409.6h177.216v200.512H336L164.48 475.392z
             M164.48 676.992h177.216v200.576H336l-171.52-134.72z"
          fill="#475569"/>

  </g>
</svg>